<?xml version="1.0" encoding="UTF-8"?>
<svg xmlns="http://www.w3.org/2000/svg" xmlns:xlink="http://www.w3.org/1999/xlink" viewBox="0 0 50 50" width="50px" height="50px">
<g id="surface8992420">
<path style=" stroke:none;fill-rule:nonzero;fill:rgb(36.862746%,50.588238%,67.450982%);fill-opacity:1;" d="M 24.992188 4.6875 C 24.421875 4.6875 23.851562 4.828125 23.359375 5.109375 L 7.875 14.046875 C 6.875 14.625 6.25 15.71875 6.25 16.875 L 6.25 33.09375 C 6.25 34.265625 6.875 35.34375 7.875 35.921875 L 11.9375 38.265625 C 13.90625 39.234375 14.609375 39.234375 15.5 39.234375 C 18.421875 39.234375 20.09375 37.46875 20.09375 34.40625 L 20.09375 17.671875 C 20.09375 17.421875 19.890625 17.21875 19.640625 17.21875 L 17.6875 17.21875 C 17.421875 17.21875 17.234375 17.421875 17.234375 17.671875 L 17.234375 34.390625 C 17.234375 35.765625 15.8125 37.109375 13.515625 35.96875 L 9.265625 33.515625 C 9.109375 33.4375 9.015625 33.265625 9.015625 33.09375 L 9.015625 16.890625 C 9.015625 16.703125 9.109375 16.546875 9.265625 16.453125 L 24.75 7.515625 C 24.890625 7.421875 25.078125 7.421875 25.234375 7.515625 L 40.71875 16.453125 C 40.875 16.546875 40.96875 16.703125 40.96875 16.875 L 40.96875 33.09375 C 40.96875 33.265625 40.875 33.4375 40.734375 33.515625 L 25.234375 42.46875 C 25.09375 42.546875 24.890625 42.546875 24.75 42.46875 L 20.765625 40.109375 C 20.65625 40.03125 20.5 40.015625 20.390625 40.078125 C 19.28125 40.703125 19.078125 40.78125 18.046875 41.140625 C 17.796875 41.21875 17.40625 41.375 18.1875 41.8125 L 23.359375 44.875 C 23.859375 45.15625 24.421875 45.3125 24.984375 45.3125 C 25.5625 45.3125 26.125 45.15625 26.625 44.875 L 42.125 35.921875 C 43.125 35.34375 43.75 34.265625 43.75 33.09375 L 43.75 16.890625 C 43.75 15.71875 43.125 14.640625 42.125 14.0625 L 26.625 5.109375 C 26.132812 4.828125 25.5625 4.6875 24.992188 4.6875 Z M 29.15625 17.195312 C 24.734375 17.195312 22.09375 19.070312 22.09375 22.195312 C 22.09375 25.585938 24.71875 26.523438 28.96875 26.945312 C 34.046875 27.445312 34.4375 28.195312 34.4375 29.195312 C 34.4375 30.914062 33.046875 31.648438 29.78125 31.648438 C 25.671875 31.648438 24.765625 30.617188 24.46875 28.585938 C 24.4375 28.367188 24.25 28.210938 24.03125 28.210938 L 22.015625 28.210938 C 21.765625 28.210938 21.578125 28.414062 21.578125 28.648438 C 21.578125 31.257812 23 34.367188 29.78125 34.367188 C 34.6875 34.367188 37.5 32.429688 37.5 29.054688 C 37.5 25.710938 35.234375 24.820312 30.484375 24.179688 C 25.65625 23.554688 25.171875 23.226562 25.171875 22.101562 C 25.171875 21.164062 25.59375 19.929688 29.15625 19.929688 C 32.328125 19.929688 33.515625 20.617188 34 22.757812 C 34.046875 22.960938 34.21875 23.117188 34.4375 23.117188 L 36.453125 23.117188 C 36.578125 23.117188 36.6875 23.054688 36.78125 22.960938 C 36.859375 22.882812 36.90625 22.757812 36.890625 22.617188 C 36.578125 18.929688 34.125 17.195312 29.15625 17.195312 Z M 29.15625 17.195312 "/>
</g>
</svg>