<?xml version="1.0" encoding="UTF-8"?>
<svg xmlns="http://www.w3.org/2000/svg" xmlns:xlink="http://www.w3.org/1999/xlink" viewBox="0 0 48 48" width="48px" height="48px">
<g id="surface9071744">
<path style=" stroke:none;fill-rule:nonzero;fill:rgb(36.862746%,50.588238%,67.450982%);fill-opacity:1;" d="M 19 2 C 14.054688 2 10 6.054688 10 11 C 10 13.886719 11.46875 16.351562 13.597656 18 C 11.46875 19.648438 10 22.113281 10 25 C 10 27.886719 11.46875 30.351562 13.597656 32 C 11.46875 33.648438 10 36.113281 10 39 C 10 43.945312 14.054688 48 19 48 C 23.945312 48 28 43.945312 28 39 L 28 20 L 33 20 C 37.945312 20 42 15.945312 42 11 C 42 6.054688 37.945312 2 33 2 Z M 19 6 L 24 6 L 24 16 L 19 16 C 16.214844 16 14 13.785156 14 11 C 14 8.214844 16.214844 6 19 6 Z M 28 6 L 33 6 C 35.785156 6 38 8.214844 38 11 C 38 13.785156 35.785156 16 33 16 L 28 16 Z M 19 20 L 24 20 L 24 30 L 19 30 C 16.214844 30 14 27.785156 14 25 C 14 22.214844 16.214844 20 19 20 Z M 34 20 C 30.6875 20 28 22.6875 28 26 C 28 29.3125 30.6875 32 34 32 C 37.3125 32 40 29.3125 40 26 C 40 22.6875 37.3125 20 34 20 Z M 19 34 L 24 34 L 24 39 C 24 41.785156 21.785156 44 19 44 C 16.214844 44 14 41.785156 14 39 C 14 36.214844 16.214844 34 19 34 Z M 19 34 "/>
</g>
</svg>